<svg width="698" height="371" viewBox="0 0 698 371" fill="none" xmlns="http://www.w3.org/2000/svg">
<path d="M663.528 351.379C647.448 361.947 639.559 365.579 628.028 366.879C619.141 367.541 615.18 366.902 610.528 363.379C603.678 356.306 601.335 351.992 599.028 343.879C588.055 307.235 577.028 260.379 569.528 248.379C562.028 236.379 553.028 232.379 553.028 232.379C548.19 231.422 545.381 231.266 540.028 231.879C531.028 235.379 525.036 244.56 520.528 249.879C495.249 278.269 482.527 297.379 461.527 320.879C440.527 344.379 444.009 340.539 431.027 351.379C423.485 357.34 418.793 360.29 409.527 364.879C395.722 370.037 387.757 371.037 373.027 368.379C365.905 365.303 362.213 362.943 356.027 357.879C352.071 353.775 350.037 351.231 347.027 345.879C340.26 333.548 336.919 326.644 333.027 314.379L304.027 231.879L393.527 138.879L409.527 186.379C416.948 202.493 424.027 210.378 431.527 211.379C439.027 212.379 448.351 207.261 455.527 198.379C463.765 188.206 468.492 181.713 477.027 169.379L516.528 101.878C528.323 82.2321 537.864 67.7303 547.528 58.3785C558.328 47.2027 565.136 43.3575 578.028 38.8785C590.418 35.1091 604.028 37.3784 612.028 40.8785C620.028 44.3786 630.528 56.3784 637.528 70.8784C644.528 85.3784 660.028 144.379 660.028 144.379C674.956 208.048 696.395 301.549 696.528 306.879C696.661 312.209 696.281 314.669 694.529 317.879C688.917 326.297 685.881 329.804 680.529 335.379C672.307 343.993 668.87 347.069 663.528 351.379Z" fill="#343737"/>
<path d="M34.0242 19.4254C50.1043 8.85702 57.9938 5.2255 69.5242 3.92537C78.4113 3.26311 82.3721 3.9021 87.0242 7.42537C93.8749 14.4986 96.2177 18.8121 98.5242 26.9254C109.498 63.5693 120.524 110.425 128.024 122.425C135.524 134.425 144.524 138.425 144.524 138.425C149.363 139.382 152.171 139.538 157.524 138.925C166.524 135.425 172.516 126.244 177.024 120.925C202.303 92.5351 215.024 73.4254 236.024 49.9254C257.024 26.4254 253.542 30.2651 266.524 19.4254C274.066 13.4643 278.758 10.5145 288.024 5.92537C301.829 0.767374 309.795 -0.232558 324.524 2.42537C331.647 5.50108 335.339 7.86139 341.524 12.9254C345.48 17.0293 347.514 19.573 350.524 24.9254C357.292 37.2563 360.632 44.16 364.524 56.4254L393.524 138.925L304.024 231.925L288.024 184.425C280.603 168.311 273.524 160.426 266.024 159.425C258.524 158.425 249.201 163.543 242.024 172.425C233.787 182.598 229.059 189.091 220.524 201.425L181.024 268.925C169.229 288.572 159.688 303.074 150.024 312.425C139.224 323.601 132.417 327.446 119.524 331.925C107.135 335.695 93.5242 333.426 85.5242 329.925C77.5242 326.425 67.0242 314.426 60.0242 299.926C53.0242 285.426 37.5242 226.425 37.5242 226.425C22.5965 162.756 1.15725 69.2556 1.02423 63.9254C0.891213 58.5952 1.2716 56.135 3.02374 52.9255C8.63563 44.5072 11.6716 41.0002 17.0237 35.4255C25.2449 26.8117 28.6822 23.735 34.0242 19.4254Z" fill="#343737"/>
<path d="M663.528 351.379C647.448 361.947 639.559 365.579 628.028 366.879C619.141 367.541 615.18 366.902 610.528 363.379C603.678 356.306 601.335 351.992 599.028 343.879C588.055 307.235 577.028 260.379 569.528 248.379C562.028 236.379 553.028 232.379 553.028 232.379C548.19 231.422 545.381 231.266 540.028 231.879C531.028 235.379 525.036 244.56 520.528 249.879C495.249 278.269 482.527 297.379 461.527 320.879C440.527 344.379 444.009 340.539 431.027 351.379C423.485 357.34 418.793 360.29 409.527 364.879C395.722 370.037 387.757 371.037 373.027 368.379C365.905 365.303 362.213 362.943 356.027 357.879C352.071 353.775 350.037 351.231 347.027 345.879C340.26 333.548 336.919 326.644 333.027 314.379L304.027 231.879L393.527 138.879L409.527 186.379C416.948 202.493 424.027 210.378 431.527 211.379C439.027 212.379 448.351 207.261 455.527 198.379C463.765 188.206 468.492 181.713 477.027 169.379L516.528 101.878C528.323 82.2321 537.864 67.7303 547.528 58.3785C558.328 47.2027 565.136 43.3575 578.028 38.8785C590.418 35.1091 604.028 37.3784 612.028 40.8785C620.028 44.3786 630.528 56.3784 637.528 70.8784C644.528 85.3784 660.028 144.379 660.028 144.379C674.956 208.048 696.395 301.549 696.528 306.879C696.661 312.209 696.281 314.669 694.529 317.879C688.917 326.297 685.881 329.804 680.529 335.379C672.307 343.993 668.87 347.069 663.528 351.379Z" stroke="#353738"/>
<path d="M34.0242 19.4254C50.1043 8.85702 57.9938 5.2255 69.5242 3.92537C78.4113 3.26311 82.3721 3.9021 87.0242 7.42537C93.8749 14.4986 96.2177 18.8121 98.5242 26.9254C109.498 63.5693 120.524 110.425 128.024 122.425C135.524 134.425 144.524 138.425 144.524 138.425C149.363 139.382 152.171 139.538 157.524 138.925C166.524 135.425 172.516 126.244 177.024 120.925C202.303 92.5351 215.024 73.4254 236.024 49.9254C257.024 26.4254 253.542 30.2651 266.524 19.4254C274.066 13.4643 278.758 10.5145 288.024 5.92537C301.829 0.767374 309.795 -0.232558 324.524 2.42537C331.647 5.50108 335.339 7.86139 341.524 12.9254C345.48 17.0293 347.514 19.573 350.524 24.9254C357.292 37.2563 360.632 44.16 364.524 56.4254L393.524 138.925L304.024 231.925L288.024 184.425C280.603 168.311 273.524 160.426 266.024 159.425C258.524 158.425 249.201 163.543 242.024 172.425C233.787 182.598 229.059 189.091 220.524 201.425L181.024 268.925C169.229 288.572 159.688 303.074 150.024 312.425C139.224 323.601 132.417 327.446 119.524 331.925C107.135 335.695 93.5242 333.426 85.5242 329.925C77.5242 326.425 67.0242 314.426 60.0242 299.926C53.0242 285.426 37.5242 226.425 37.5242 226.425C22.5965 162.756 1.15725 69.2556 1.02423 63.9254C0.891213 58.5952 1.2716 56.135 3.02374 52.9255C8.63563 44.5072 11.6716 41.0002 17.0237 35.4255C25.2449 26.8117 28.6822 23.735 34.0242 19.4254Z" stroke="#353738"/>
</svg>
